# xmcd CD database file
#
# Track frame offsets:
#	150
#	46903
#	98953
#	169392
#	207788
#
# Disc length: 3301 seconds
#
# Revision: 0
# Processed by: cddbd v1.5.2PL0 Copyright (c) Steve Scherf et al.
# Submitted via: CDex 1.70beta2
#
DISCID=3e0ce305
DTITLE=YOGA NIDR - 夢のヨーガ
DYEAR=2005
DGENRE=New Age
TTITLE0=Dream Body - 旅のはじまり
TTITLE1=Fairlight II - 光の世界
TTITLE2=Cosmic Ocean - 意識の海に
TTITLE3=Floating Heart - 浮遊
TTITLE4=Earth Consciousness - 目覚めへの準備
EXTD=YEAR: 2005
EXTT0=
EXTT1=
EXTT2=
EXTT3=
EXTT4=
PLAYORDER=
